<svg xmlns="http://www.w3.org/2000/svg" viewBox="0 0 24 24">
  <defs>
    <linearGradient id="gGlass" x1="0" y1="0" x2="0" y2="1">
      <stop offset="0%" stop-color="#C4B5FD"/>
      <stop offset="100%" stop-color="#7C3AED"/>
    </linearGradient>
    <linearGradient id="gLiquid" x1="0" y1="0" x2="1" y2="0">
      <stop offset="0%" stop-color="#F472B6"/>
      <stop offset="100%" stop-color="#22D3EE"/>
    </linearGradient>
    <filter id="shadow" x="-50%" y="-50%" width="200%" height="200%">
      <feDropShadow dx="0" dy="1" stdDeviation="1.5" flood-color="#000" flood-opacity=".35"/>
    </filter>
  </defs>
  <path d="M10 2h4v5l5 9a4 4 0 0 1-3.5 6h-7a4 4 0 0 1-3.5-6l5-9V2z" fill="url(#gGlass)" filter="url(#shadow)"/>
  <path d="M7 14h10" stroke="rgba(255,255,255,.8)" stroke-width="1.2" stroke-linecap="round"/>
  <path d="M7.5 15.5c2.2-.6 4.5-.9 6.5-.7 2 .2 4 .8 5 1.3 0 2.3-1.7 4.4-4.2 4.4h-6c-2.5 0-4.2-2.1-4.2-4.4.6-.2 1.5-.5 2.9-.6z" fill="url(#gLiquid)" opacity=".9"/>
</svg>